<?xml version="1.0" encoding="utf-8"?>
<!-- Generator: Adobe Illustrator 19.0.0, SVG Export Plug-In . SVG Version: 6.00 Build 0)  -->
<!DOCTYPE svg PUBLIC "-//W3C//DTD SVG 1.1//EN" "http://www.w3.org/Graphics/SVG/1.1/DTD/svg11.dtd">
<svg version="1.1" id="Layer_1" xmlns="http://www.w3.org/2000/svg" xmlns:xlink="http://www.w3.org/1999/xlink" x="0px" y="0px"
	 viewBox="0 0 25 25" style="enable-background:new 0 0 25 25;" xml:space="preserve">
<style type="text/css">
	.st0{fill:#666666;}
</style>
<path id="XMLID_3_" class="st0" d="M24.5,12.5c0,6.6-5.4,12-12,12s-12-5.4-12-12s5.4-12,12-12S24.5,5.9,24.5,12.5z M17,16h-4.8l0,0
	l1.1-1.2c1-0.9,1.6-1.6,2-2.1s0.6-1,0.8-1.4s0.3-1,0.3-1.5c0-0.6-0.2-1.1-0.5-1.6s-0.7-0.8-1.3-1.1c-0.5-0.3-1.2-0.4-1.9-0.4
	c-0.5,0-1,0.1-1.5,0.2C10.8,7,10.3,7.1,10,7.3c-0.4,0.2-0.8,0.5-1.4,1l1.3,1.6c0.5-0.4,0.9-0.7,1.3-0.9s0.8-0.3,1.3-0.3
	c0.4,0,0.8,0.1,1,0.3c0.3,0.2,0.4,0.6,0.4,1c0,0.3-0.1,0.6-0.2,0.9c-0.1,0.3-0.3,0.6-0.6,0.9s-0.6,0.9-1.5,1.8L9,16.6V18h8V16z"/>
</svg>
