<?xml version="1.0" encoding="utf-8"?>
<!-- Generator: Adobe Illustrator 19.0.0, SVG Export Plug-In . SVG Version: 6.00 Build 0)  -->
<!DOCTYPE svg PUBLIC "-//W3C//DTD SVG 1.1//EN" "http://www.w3.org/Graphics/SVG/1.1/DTD/svg11.dtd">
<svg version="1.1" id="Layer_1" xmlns="http://www.w3.org/2000/svg" xmlns:xlink="http://www.w3.org/1999/xlink" x="0px" y="0px"
	 viewBox="0 0 25 25" style="enable-background:new 0 0 25 25;" xml:space="preserve">
<style type="text/css">
	.st0{fill:#666666;}
</style>
<path id="_x33_" class="st0" d="M24.5,12.5c0,6.6-5.4,12-12,12s-12-5.4-12-12s5.4-12,12-12S24.5,5.9,24.5,12.5z M15.2,7.4
	c-0.7-0.5-1.6-0.7-2.8-0.7c-1.4,0-2.7,0.4-3.7,1.1l1.1,1.7C10.2,9.2,10.6,9,11,8.9s0.8-0.2,1.1-0.2c1.1,0,1.6,0.4,1.6,1.3
	c0,0.6-0.2,1.2-0.6,1.4c-0.4,0.2-1.1,0.6-1.9,0.6H10v1h1.2c1,0,1.7,0.3,2.1,0.5c0.4,0.2,0.7,0.7,0.7,1.2c0,0.6-0.2,1.1-0.6,1.4
	c-0.4,0.3-1,0.4-1.8,0.4c-0.5,0-0.9-0.1-1.4-0.2S9,16,9,15.8v2.1c1,0.4,1.9,0.6,3.1,0.6c1.5,0,2.5-0.3,3.3-0.9
	c0.8-0.6,1.1-1.5,1.1-2.6c0-0.8-0.1-1.4-0.6-1.8s-1-0.7-2-0.8v0c0.1-0.1,1.2-0.5,1.7-1s0.6-1.1,0.6-1.8C16.3,8.6,15.8,7.9,15.2,7.4z
	"/>
</svg>
